<?xml version="1.0" encoding="utf-8"?>
<!-- Generator: Adobe Illustrator 15.0.0, SVG Export Plug-In . SVG Version: 6.00 Build 0)  -->
<!DOCTYPE svg PUBLIC "-//W3C//DTD SVG 1.1//EN" "http://www.w3.org/Graphics/SVG/1.1/DTD/svg11.dtd">
<svg version="1.1" id="Layer_1" xmlns="http://www.w3.org/2000/svg" xmlns:xlink="http://www.w3.org/1999/xlink" x="0px" y="0px"
	 width="80px" height="80px" viewBox="0 0 80 80" enable-background="new 0 0 80 80" xml:space="preserve">
<g id="shopping-basket_1_">
	<path fill="#FFFFFF" d="M52.288,31.125l-11.86-17.793c-0.539-0.54-1.348-1.078-2.156-1.078c-0.811,0-1.619,0.271-2.16,1.078
		L24.25,31.125H11.309c-1.615,0-2.695,1.08-2.695,2.696c0,0.27,0,0.54,0,0.81l6.738,25.072c0.541,2.156,2.699,4.043,5.125,4.043
		h35.046c2.427,0,4.587-1.616,5.126-4.043l6.738-25.072c0-0.27,0-0.54,0-0.81c0-1.616-1.082-2.696-2.697-2.696H52.288z
		 M30.182,31.125l8.09-11.862l8.084,11.862H30.182z"/>
</g>
</svg>
